<?xml version="1.0" encoding="UTF-8"?>
<svg xmlns="http://www.w3.org/2000/svg" width="600" height="600" version="1.1">
    <g id="chart-frame">
        <path id="plot-area" d="M 50 550 L 550 550 L 300 117 z" fill="Bisque" stroke="black" stroke-width="2" />
        <line id="centroid-interval1" x1="133.333" y1="405.662" x2="466.667" y2="405.662" stroke="SaddleBrown" stroke-weight="1" stroke-dasharray="1,1" />
        <line id="centroid-interval2" x1="216.667" y1="261.325" x2="383.333" y2="550" stroke="SaddleBrown" stroke-weight="1" stroke-dasharray="1,1" />
        <line id="centroid-interval3" x1="216.667" y1="550" x2="383.333" y2="261.325" stroke="SaddleBrown" stroke-weight="1" stroke-dasharray="1,1" />
        <line id="secondary-interval1" x1="133.333" y1="405.662" x2="216.667" y2="550" stroke="SaddleBrown" stroke-weight="1" stroke-dasharray="1,2" />
        <line id="secondary-interval2" x1="383.333" y1="550" x2="466.667" y2="405.662" stroke="SaddleBrown" stroke-weight="1" stroke-dasharray="1,2" />
        <line id="secondary-interval3" x1="216.667" y1="261.325" x2="383.333" y2="261.325" stroke="SaddleBrown" stroke-weight="1" stroke-dasharray="1,2" />
        <g id="tic-marks">
            <line id="tic01" x1="100" y1="550" x2="95" y2="541.340" stroke="black" stroke-weight="1" />
            <line id="tic02" x1="100" y1="550" x2="105" y2="541.340" stroke="black" stroke-weight="1" />
            <line id="tic03" x1="150" y1="550" x2="145" y2="541.340" stroke="black" stroke-weight="1" />
            <line id="tic04" x1="150" y1="550" x2="155" y2="541.340" stroke="black" stroke-weight="1" />
            <line id="tic05" x1="200" y1="550" x2="195" y2="541.340" stroke="black" stroke-weight="1" />
            <line id="tic06" x1="200" y1="550" x2="205" y2="541.340" stroke="black" stroke-weight="1" />
            <line id="tic07" x1="250" y1="550" x2="245" y2="541.340" stroke="black" stroke-weight="1" />
            <line id="tic08" x1="250" y1="550" x2="255" y2="541.340" stroke="black" stroke-weight="1" />
            <line id="tic09" x1="300" y1="550" x2="295" y2="541.340" stroke="black" stroke-weight="1" />
            <line id="tic10" x1="300" y1="550" x2="305" y2="541.340" stroke="black" stroke-weight="1" />
            <line id="tic11" x1="350" y1="550" x2="345" y2="541.340" stroke="black" stroke-weight="1" />
            <line id="tic12" x1="350" y1="550" x2="355" y2="541.340" stroke="black" stroke-weight="1" />
            <line id="tic13" x1="400" y1="550" x2="395" y2="541.340" stroke="black" stroke-weight="1" />
            <line id="tic14" x1="400" y1="550" x2="405" y2="541.340" stroke="black" stroke-weight="1" />
            <line id="tic15" x1="450" y1="550" x2="445" y2="541.340" stroke="black" stroke-weight="1" />
            <line id="tic16" x1="450" y1="550" x2="455" y2="541.340" stroke="black" stroke-weight="1" />
            <line id="tic17" x1="500" y1="550" x2="495" y2="541.340" stroke="black" stroke-weight="1" />
            <line id="tic18" x1="500" y1="550" x2="505" y2="541.340" stroke="black" stroke-weight="1" />
            <line id="tic19" x1="75" y1="506.7" x2="85" y2="506.7" stroke="black" stroke-weight="1" />
            <line id="tic20" x1="75" y1="506.7" x2="80" y2="515.36" stroke="black" stroke-weight="1" />
            <line id="tic21" x1="100" y1="463.4" x2="110" y2="463.4" stroke="black" stroke-weight="1" />
            <line id="tic22" x1="100" y1="463.4" x2="105" y2="471.73" stroke="black" stroke-weight="1" />
            <line id="tic23" x1="125" y1="420.1" x2="135" y2="420.1" stroke="black" stroke-weight="1" />
            <line id="tic24" x1="125" y1="420.1" x2="130" y2="428.43" stroke="black" stroke-weight="1" />
            <line id="tic25" x1="150" y1="376.8" x2="160" y2="376.8" stroke="black" stroke-weight="1" />
            <line id="tic26" x1="150" y1="376.8" x2="155" y2="385.13" stroke="black" stroke-weight="1" />
            <line id="tic27" x1="175" y1="333.5" x2="185" y2="333.5" stroke="black" stroke-weight="1" />
            <line id="tic28" x1="175" y1="333.5" x2="180" y2="341.83" stroke="black" stroke-weight="1" />
            <line id="tic29" x1="200" y1="290.2" x2="210" y2="290.2" stroke="black" stroke-weight="1" />
            <line id="tic30" x1="200" y1="290.2" x2="205" y2="298.53" stroke="black" stroke-weight="1" />
            <line id="tic31" x1="225" y1="246.9" x2="235" y2="246.9" stroke="black" stroke-weight="1" />
            <line id="tic32" x1="225" y1="246.9" x2="230" y2="255.23" stroke="black" stroke-weight="1" />
            <line id="tic33" x1="250" y1="203.6" x2="260" y2="203.6" stroke="black" stroke-weight="1" />
            <line id="tic34" x1="250" y1="203.6" x2="255" y2="211.93" stroke="black" stroke-weight="1" />
            <line id="tic35" x1="275" y1="160.3" x2="285" y2="160.3" stroke="black" stroke-weight="1" />
            <line id="tic36" x1="275" y1="160.3" x2="280" y2="168.63" stroke="black" stroke-weight="1" />
            <line id="tic37" x1="525" y1="506.7" x2="515" y2="506.7" stroke="black" stroke-weight="1" />
            <line id="tic38" x1="525" y1="506.7" x2="520" y2="515.36" stroke="black" stroke-weight="1" />
            <line id="tic39" x1="500" y1="463.4" x2="490" y2="463.4" stroke="black" stroke-weight="1" />
            <line id="tic40" x1="500" y1="463.4" x2="495" y2="471.73" stroke="black" stroke-weight="1" />
            <line id="tic41" x1="475" y1="420.1" x2="465" y2="420.1" stroke="black" stroke-weight="1" />
            <line id="tic42" x1="475" y1="420.1" x2="470" y2="428.43" stroke="black" stroke-weight="1" />
            <line id="tic43" x1="450" y1="376.8" x2="440" y2="376.8" stroke="black" stroke-weight="1" />
            <line id="tic44" x1="450" y1="376.8" x2="445" y2="385.13" stroke="black" stroke-weight="1" />
            <line id="tic45" x1="425" y1="333.5" x2="415" y2="333.5" stroke="black" stroke-weight="1" />
            <line id="tic46" x1="425" y1="333.5" x2="420" y2="341.83" stroke="black" stroke-weight="1" />
            <line id="tic47" x1="400" y1="290.2" x2="390" y2="290.2" stroke="black" stroke-weight="1" />
            <line id="tic48" x1="400" y1="290.2" x2="395" y2="298.53" stroke="black" stroke-weight="1" />
            <line id="tic49" x1="375" y1="246.9" x2="365" y2="246.9" stroke="black" stroke-weight="1" />
            <line id="tic50" x1="375" y1="246.9" x2="370" y2="255.23" stroke="black" stroke-weight="1" />
            <line id="tic51" x1="350" y1="203.6" x2="340" y2="203.6" stroke="black" stroke-weight="1" />
            <line id="tic52" x1="350" y1="203.6" x2="345" y2="211.93" stroke="black" stroke-weight="1" />
            <line id="tic53" x1="325" y1="160.3" x2="315" y2="160.3" stroke="black" stroke-weight="1" />
            <line id="tic54" x1="325" y1="160.3" x2="320" y2="168.63" stroke="black" stroke-weight="1" />
            <line id="tenth-line01" x1="100" y1="550" x2="325" y2="160.3" stroke="black" stroke-weight="1" stroke-dasharray="1,3" />
            <line id="tenth-line02" x1="150" y1="550" x2="350" y2="203.6" stroke="black" stroke-weight="1" stroke-dasharray="1,3" />
            <line id="tenth-line03" x1="200" y1="550" x2="375" y2="246.9" stroke="black" stroke-weight="1" stroke-dasharray="1,3" />
            <line id="tenth-line04" x1="250" y1="550" x2="400" y2="290.2" stroke="black" stroke-weight="1" stroke-dasharray="1,3" />
            <line id="tenth-line05" x1="300" y1="550" x2="425" y2="333.5" stroke="black" stroke-weight="1" stroke-dasharray="1,3" />
            <line id="tenth-line06" x1="350" y1="550" x2="450" y2="376.8" stroke="black" stroke-weight="1" stroke-dasharray="1,3" />
            <line id="tenth-line07" x1="400" y1="550" x2="475" y2="420.1" stroke="black" stroke-weight="1" stroke-dasharray="1,3" />
            <line id="tenth-line08" x1="450" y1="550" x2="500" y2="463.4" stroke="black" stroke-weight="1" stroke-dasharray="1,3" />
            <line id="tenth-line09" x1="500" y1="550" x2="525" y2="506.7" stroke="black" stroke-weight="1" stroke-dasharray="1,3" />
            <line id="tenth-line10" x1="100" y1="550" x2="75" y2="506.7" stroke="black" stroke-weight="1" stroke-dasharray="1,3" />
            <line id="tenth-line11" x1="150" y1="550" x2="100" y2="463.4" stroke="black" stroke-weight="1" stroke-dasharray="1,3" />
            <line id="tenth-line12" x1="200" y1="550" x2="125" y2="420.1" stroke="black" stroke-weight="1" stroke-dasharray="1,3" />
            <line id="tenth-line13" x1="250" y1="550" x2="150" y2="376.8" stroke="black" stroke-weight="1" stroke-dasharray="1,3" />
            <line id="tenth-line14" x1="300" y1="550" x2="175" y2="333.5" stroke="black" stroke-weight="1" stroke-dasharray="1,3" />
            <line id="tenth-line15" x1="350" y1="550" x2="200" y2="290.2" stroke="black" stroke-weight="1" stroke-dasharray="1,3" />
            <line id="tenth-line16" x1="400" y1="550" x2="225" y2="246.9" stroke="black" stroke-weight="1" stroke-dasharray="1,3" />
            <line id="tenth-line17" x1="450" y1="550" x2="250" y2="203.6" stroke="black" stroke-weight="1" stroke-dasharray="1,3" />
            <line id="tenth-line18" x1="500" y1="550" x2="275" y2="160.3" stroke="black" stroke-weight="1" stroke-dasharray="1,3" />
            <line id="tenth-line19" x1="525" y1="506.7" x2="75" y2="506.7" stroke="black" stroke-weight="1" stroke-dasharray="1,3" />
            <line id="tenth-line20" x1="500" y1="463.4" x2="100" y2="463.4" stroke="black" stroke-weight="1" stroke-dasharray="1,3" />
            <line id="tenth-line21" x1="475" y1="420.1" x2="125" y2="420.1" stroke="black" stroke-weight="1" stroke-dasharray="1,3" />
            <line id="tenth-line22" x1="450" y1="376.8" x2="150" y2="376.8" stroke="black" stroke-weight="1" stroke-dasharray="1,3" />
            <line id="tenth-line23" x1="425" y1="333.5" x2="175" y2="333.5" stroke="black" stroke-weight="1" stroke-dasharray="1,3" />
            <line id="tenth-line24" x1="400" y1="290.2" x2="200" y2="290.2" stroke="black" stroke-weight="1" stroke-dasharray="1,3" />
            <line id="tenth-line25" x1="375" y1="246.9" x2="225" y2="246.9" stroke="black" stroke-weight="1" stroke-dasharray="1,3" />
            <line id="tenth-line26" x1="350" y1="203.6" x2="250" y2="203.6" stroke="black" stroke-weight="1" stroke-dasharray="1,3" />
            <line id="tenth-line27" x1="325" y1="160.3" x2="275" y2="160.3" stroke="black" stroke-weight="1" stroke-dasharray="1,3" />
        </g>
    </g>
</svg>
